<?xml version="1.0" encoding="UTF-8"?>
<svg id="Livello_1" xmlns="http://www.w3.org/2000/svg" viewBox="0 0 210.37 170.8">
  <path d="M115.46,74.51h47.97v48.47h46.94v47.68h-94.91v-96.15Z"/>
  <path d="M0,74.28h93.79v96.52h-47.97v-49.09H0v-47.43Z"/>
  <path d="M93.36,24.02c0,13.25-10.7,23.97-23.94,23.98-13.36.01-24.11-10.76-24.06-24.13C45.41,10.66,56.19-.03,69.44,0c13.22.03,23.92,10.77,23.92,24.02Z"/>
  <path d="M163.36,24.12c-.03,13.22-10.78,23.89-24.04,23.88-13.23-.01-23.95-10.74-23.95-23.98C115.36,10.68,126.17-.06,139.54,0c13.2.06,23.85,10.84,23.82,24.12Z"/>
</svg>